<?xml version="1.0" encoding="UTF-8" standalone="no"?>
<!-- Generator: Adobe Illustrator 15.0.0, SVG Export Plug-In . SVG Version: 6.00 Build 0)  -->

<svg
   xmlns:dc="http://purl.org/dc/elements/1.1/"
   xmlns:cc="http://creativecommons.org/ns#"
   xmlns:rdf="http://www.w3.org/1999/02/22-rdf-syntax-ns#"
   xmlns:svg="http://www.w3.org/2000/svg"
   xmlns="http://www.w3.org/2000/svg"
   xmlns:sodipodi="http://sodipodi.sourceforge.net/DTD/sodipodi-0.dtd"
   xmlns:inkscape="http://www.inkscape.org/namespaces/inkscape"
   version="1.1"
   id="Layer_1"
   x="0px"
   y="0px"
   width="595.28px"
   height="841.89px"
   viewBox="0 0 595.28 841.89"
   enable-background="new 0 0 595.28 841.89"
   xml:space="preserve"
   inkscape:version="0.47 r22583"
   sodipodi:docname="giunchi.svg"><metadata
   id="metadata14"><rdf:RDF><cc:Work
       rdf:about=""><dc:format>image/svg+xml</dc:format><dc:type
         rdf:resource="http://purl.org/dc/dcmitype/StillImage" /><dc:title></dc:title><dc:creator><cc:Agent><dc:title>Arch. Emilie Rollandin</dc:title></cc:Agent></dc:creator><cc:license
         rdf:resource="http://creativecommons.org/licenses/by/3.0/" /></cc:Work><cc:License
       rdf:about="http://creativecommons.org/licenses/by/3.0/"><cc:permits
         rdf:resource="http://creativecommons.org/ns#Reproduction" /><cc:permits
         rdf:resource="http://creativecommons.org/ns#Distribution" /><cc:requires
         rdf:resource="http://creativecommons.org/ns#Notice" /><cc:requires
         rdf:resource="http://creativecommons.org/ns#Attribution" /><cc:permits
         rdf:resource="http://creativecommons.org/ns#DerivativeWorks" /></cc:License></rdf:RDF></metadata><defs
   id="defs12"><inkscape:perspective
     sodipodi:type="inkscape:persp3d"
     inkscape:vp_x="0 : 420.94501 : 1"
     inkscape:vp_y="0 : 1000 : 0"
     inkscape:vp_z="595.28003 : 420.94501 : 1"
     inkscape:persp3d-origin="297.64001 : 280.63 : 1"
     id="perspective16" /></defs><sodipodi:namedview
   pagecolor="#ffffff"
   bordercolor="#666666"
   borderopacity="1"
   objecttolerance="10"
   gridtolerance="10"
   guidetolerance="10"
   inkscape:pageopacity="0"
   inkscape:pageshadow="2"
   inkscape:window-width="683"
   inkscape:window-height="488"
   id="namedview10"
   showgrid="false"
   inkscape:zoom="0.28032165"
   inkscape:cx="297.64001"
   inkscape:cy="420.94501"
   inkscape:window-x="0"
   inkscape:window-y="0"
   inkscape:window-maximized="0"
   inkscape:current-layer="Layer_1" />
<radialGradient
   id="SVGID_1_"
   cx="297.6406"
   cy="472.7139"
   r="212.7895"
   gradientUnits="userSpaceOnUse">
	<stop
   offset="0"
   style="stop-color:#95C11F"
   id="stop4" />
	<stop
   offset="1"
   style="stop-color:#006633"
   id="stop6" />
</radialGradient>
<path
   fill-rule="evenodd"
   clip-rule="evenodd"
   fill="url(#SVGID_1_)"
   d="M457.779,442.303c19.862-10.224,45.468-14.354,68.394-4.315  c-22.15,3.721-46.531,5.204-58.748,19.04c24.549,22.729,73.495,28.652,119.435,22.948c-41.482,19.396-108.734,11.393-139.038-13.343  c-0.618,3.49-1.215,15.102-7.487,19.469c11.129,10.037,25.556,16.827,24.089,39.258c-22.155-40.142-49.749-1.327-75.749,9.138  c50.638-31.995-16.489-118.496-45.917-56.529c-0.18,8.257,5.603,10.652,9.645,14.726c8.52-1.989,9.396-11.779,14.78-16.961  c14.805,1.938,23.07,11.824,24.234,22.182c5.71,50.707-85.686,49.016-87.855-3.17c-22.345,12.603-3.906,52.938,9.263,61.104  c-14.107-0.69-32.316-18.226-36.318-36.914c-46.821,33.346-112.28,6.396-138.916-28.011c-7.222,2.069,5.637,3.716,2.372,9.797  c-13.628,11.369-56.943,19.984-70.819,1.859c24.672,8.521,44.737-6.34,61.147-14.162c-24.834-22.853-75.164-29.169-121.868-22.965  c28.438-10.497,55.752-17.103,92.841-9.003c53.105,11.616,81.217,64.48,128.887,59.664c14.636-1.49,43.749-19.064,46.722-41.123  c2.95-21.852-15.968-57.944-43.553-46.743c-6.395,2.603-22.002,23.509-5.164,34.138c3.697-0.158-3.771-15.985,2.595-19.503  c21.172-14.225,38.028,5.647,38.881,22.284c2.445,47.782-84.229,57.467-95.268,6.541c-9.533,5.042-15.76,13.877-26.882,4.648  c-1.006-9.223,4.907-11.414,7.458-17.023c-9.65-11.477-25.382-16.984-24.088-39.245c19.907,35.997,50.593,7.255,70.872-9.185  c2.518,11.252-17.67,19.57-12.601,48.723c5.317,30.708,50.154,41.517,63.395,7.834c-0.832-7.238-4.131-12.078-9.644-14.713  c-11.532-1.063-5.413,15.825-14.781,16.956c-56.961-19.16,7.317-92.532,51.644-45.94c7.584,7.965,9.242,17.424,14.404,29.405  c17.658-21.678-3.973-47.508-14.124-63.587c20.005,6.131,30.524,21.621,38.718,39.37c41.926-38.33,112.359-9.184,138.966,23.121  C468.244,456.803,455.155,450.475,457.779,442.303z M442.965,464.155c-23.852-36.897-103.738-51.414-122.026-3.452  c-7.998,20.947,5.564,64.769,43.456,56.512c8.588-5.345,15.91-27.883,2.731-34.165c6.554,38.769-54.426,24.031-38.886-19.839  c16.338-36.341,86.264-31.626,92.66,10.525C429.5,470.718,436.142,461.963,442.965,464.155z"
   id="path8" />
</svg>